<svg width="21" height="30" viewBox="0 0 21 30" fill="none" xmlns="http://www.w3.org/2000/svg">
<rect width="21" height="30" rx="6.86275" fill="#4B68FF"/>
<path d="M9.31 17.84V17.19C9.31 16.4833 9.41 15.8967 9.61 15.43C9.81667 14.9633 10.0733 14.57 10.38 14.25C10.6867 13.93 10.9967 13.64 11.31 13.38C11.6767 13.0733 11.9967 12.76 12.27 12.44C12.55 12.1133 12.69 11.7 12.69 11.2C12.69 10.6867 12.5133 10.2567 12.16 9.91C11.8067 9.56333 11.3 9.39 10.64 9.39C9.87333 9.39 9.28333 9.61333 8.87 10.06C8.46333 10.5 8.26 11.1 8.26 11.86H6.04C6.04 10.9067 6.23333 10.0867 6.62 9.4C7.00667 8.71333 7.54333 8.18667 8.23 7.82C8.92333 7.44667 9.72667 7.26 10.64 7.26C11.5667 7.26 12.3467 7.43667 12.98 7.79C13.62 8.13667 14.1067 8.60667 14.44 9.2C14.7733 9.79333 14.94 10.4633 14.94 11.21C14.94 11.7967 14.8467 12.29 14.66 12.69C14.48 13.09 14.25 13.4367 13.97 13.73C13.6967 14.0167 13.4133 14.2867 13.12 14.54C12.8533 14.7667 12.6 15.0033 12.36 15.25C12.1267 15.4967 11.9333 15.7767 11.78 16.09C11.6333 16.3967 11.56 16.77 11.56 17.21V17.84H9.31ZM10.43 21.75C9.99 21.75 9.62 21.6033 9.32 21.31C9.02667 21.01 8.88 20.6467 8.88 20.22C8.88 19.8067 9.02667 19.4467 9.32 19.14C9.62 18.8333 9.99 18.68 10.43 18.68C10.8767 18.68 11.25 18.8333 11.55 19.14C11.8567 19.4467 12.01 19.8067 12.01 20.22C12.01 20.6467 11.8567 21.01 11.55 21.31C11.25 21.6033 10.8767 21.75 10.43 21.75Z" fill="white"/>
</svg>
